<svg width="26" height="26" viewBox="0 0 26 26" fill="none" xmlns="http://www.w3.org/2000/svg">
<path d="M8.12583 25C8.78725 25 9.32343 24.4614 9.32343 23.797C9.32343 23.1326 8.78725 22.594 8.12583 22.594C7.46441 22.594 6.92822 23.1326 6.92822 23.797C6.92822 24.4614 7.46441 25 8.12583 25Z" stroke="#004182" stroke-width="2" stroke-linecap="round" stroke-linejoin="round"/>
<path d="M21.2992 25C21.9606 25 22.4968 24.4614 22.4968 23.797C22.4968 23.1326 21.9606 22.594 21.2992 22.594C20.6377 22.594 20.1016 23.1326 20.1016 23.797C20.1016 24.4614 20.6377 25 21.2992 25Z" stroke="#004182" stroke-width="2" stroke-linecap="round" stroke-linejoin="round"/>
<path d="M1 1H3.39521L6.58084 15.9414C6.6977 16.4886 7.0008 16.9777 7.43798 17.3246C7.87515 17.6716 8.41905 17.8546 8.97605 17.8421H20.6886C21.2337 17.8412 21.7623 17.6536 22.1869 17.3102C22.6115 16.9668 22.9068 16.4882 23.024 15.9534L25 7.01504H4.67665" stroke="#004182" stroke-width="2" stroke-linecap="round" stroke-linejoin="round"/>
</svg>
