<svg width="40" height="40" viewBox="0 0 40 40" fill="none" xmlns="http://www.w3.org/2000/svg">
<circle cx="20" cy="20" r="20" fill="white"/>
<path fill-rule="evenodd" clip-rule="evenodd" d="M24.2855 10H27.5521C28.9036 10 30 11.1059 30 12.4702V15.7641C30 17.1274 28.9036 18.2343 27.5521 18.2343H24.2855C22.933 18.2343 21.8366 17.1274 21.8366 15.7641V12.4702C21.8366 11.1059 22.933 10 24.2855 10ZM12.4489 10H15.7145C17.067 10 18.1634 11.1059 18.1634 12.4702V15.7641C18.1634 17.1274 17.067 18.2343 15.7145 18.2343H12.4489C11.0964 18.2343 10 17.1274 10 15.7641V12.4702C10 11.1059 11.0964 10 12.4489 10ZM12.4489 21.7657H15.7145C17.067 21.7657 18.1634 22.8716 18.1634 24.2369V27.5298C18.1634 28.8941 17.067 30 15.7145 30H12.4489C11.0964 30 10 28.8941 10 27.5298V24.2369C10 22.8716 11.0964 21.7657 12.4489 21.7657ZM24.2855 21.7657H27.5521C28.9036 21.7657 30 22.8716 30 24.2369V27.5298C30 28.8941 28.9036 30 27.5521 30H24.2855C22.933 30 21.8366 28.8941 21.8366 27.5298V24.2369C21.8366 22.8716 22.933 21.7657 24.2855 21.7657Z" stroke="#004182" stroke-width="1.5" stroke-linecap="round" stroke-linejoin="round"/>
</svg>
