<svg width="40" height="40" viewBox="0 0 40 40" fill="none" xmlns="http://www.w3.org/2000/svg">
<path d="M17.1572 28.7714V25.7047C17.1572 24.9246 17.7931 24.2908 18.581 24.2856H21.4671C22.2587 24.2856 22.9005 24.9209 22.9005 25.7047V28.7809C22.9003 29.4432 23.4343 29.9845 24.103 30H26.0271C27.9451 30 29.5 28.4607 29.5 26.5618V17.8378C29.4898 17.0908 29.1355 16.3893 28.538 15.933L21.9577 10.6853C20.8049 9.77157 19.1662 9.77157 18.0134 10.6853L11.462 15.9426C10.8623 16.397 10.5074 17.0997 10.5 17.8474V26.5618C10.5 28.4607 12.0549 30 13.9729 30H15.897C16.5824 30 17.138 29.4499 17.138 28.7714" stroke="white" stroke-width="1.5" stroke-linecap="round" stroke-linejoin="round"/>
</svg>
