<svg width="40" height="40" viewBox="0 0 40 40" fill="none" xmlns="http://www.w3.org/2000/svg">
<circle cx="20" cy="20" r="20" fill="white"/>
<path fill-rule="evenodd" clip-rule="evenodd" d="M20 8C17.0163 8 14.5974 10.4797 14.5974 13.5385C14.5974 16.5973 17.0163 19.0769 20 19.0769C22.9838 19.0769 25.4026 16.5973 25.4026 13.5385C25.4026 10.4797 22.9838 8 20 8ZM16.3983 13.5385C16.3983 11.4993 18.0109 9.84615 20 9.84615C21.9891 9.84615 23.6017 11.4993 23.6017 13.5385C23.6017 15.5776 21.9891 17.2308 20 17.2308C18.0109 17.2308 16.3983 15.5776 16.3983 13.5385ZM20 20C15.8548 20 13.292 21.3218 11.7919 23.215C10.3211 25.071 10.0044 27.3131 10 28.9051C9.99473 30.8179 11.6167 32 13.2397 32H26.7603C28.3834 32 30.0053 30.8179 30 28.9051C29.9956 27.3131 29.6789 25.071 28.2081 23.215C26.708 21.3218 24.1452 20 20 20ZM11.8009 28.9103C11.8047 27.5198 12.0878 25.7696 13.1897 24.379C14.2623 23.0254 16.2452 21.8462 20 21.8462C23.7548 21.8462 25.7377 23.0254 26.8103 24.379C27.9123 25.7696 28.1953 27.5198 28.1991 28.9103C28.2009 29.5614 27.6383 30.1538 26.7603 30.1538H13.2397C12.3617 30.1538 11.7991 29.5614 11.8009 28.9103Z" fill="#004182"/>
</svg>
