<svg width="40" height="40" viewBox="0 0 40 40" fill="none" xmlns="http://www.w3.org/2000/svg">
<path d="M23.7393 15.053C24.8046 15.3933 25.5616 16.3497 25.6561 17.475M19.761 28.8538C17.5904 27.5179 15.5711 25.9456 13.7393 24.1652C12.4514 22.8829 11.471 21.3198 10.8731 19.5954C9.79714 16.2503 11.0539 12.4208 14.5711 11.2875C16.4196 10.6924 18.4384 11.0326 19.9961 12.2015C21.5543 11.034 23.5725 10.694 25.4211 11.2875C28.9383 12.4208 30.2041 16.2503 29.1281 19.5954C28.5302 21.3198 27.5498 22.8829 26.2619 24.1652C24.4301 25.9456 22.4108 27.5179 20.2402 28.8538L20.0051 29L19.761 28.8538Z" stroke="white" stroke-width="1.5" stroke-linecap="round" stroke-linejoin="round"/>
</svg>
